<?xml version="1.0" encoding="iso-8859-1"?>
<!-- Generator: Adobe Illustrator 19.0.0, SVG Export Plug-In . SVG Version: 6.00 Build 0)  -->
<svg version="1.1" id="Capa_1" xmlns="http://www.w3.org/2000/svg" xmlns:xlink="http://www.w3.org/1999/xlink" x="0px" y="0px"
	 viewBox="0 0 508 508" style="enable-background:new 0 0 508 508;fill:#3265f6;" xml:space="preserve">
<g>
	<g>
		<path d="M483.4,483.4V106.5h-65.5v376.9h-32.8V286.8h-65.5v196.6h-32.8v-295h-65.5v295h-32.8V254H123v229.4H90.1V352.3H24.6v131.1
			H0v16.4h508v-16.4H483.4z M73.8,483.4H41V368.7h32.8V483.4z M172.1,483.4h-32.8v-213h32.8V483.4z M270.4,483.4h-32.8V204.8h0h32.8
			V483.4z M368.7,483.5h-32.8V303.2h32.8V483.5z M467,483.4h-32.8V122.9h0.1H467V483.4z"/>
	</g>
</g>
<g>
	<g>
		<polygon points="401.5,8.2 401.5,24.6 439.1,24.6 344.1,119.5 286.8,62.2 163.9,185.1 114.7,135.9 35.2,215.4 46.8,227 
			114.7,159.1 163.9,208.2 286.8,85.3 344.1,142.7 450.6,36.2 450.6,73.7 467,73.7 467,8.2 		"/>
	</g>
</g>
<g>
</g>
<g>
</g>
<g>
</g>
<g>
</g>
<g>
</g>
<g>
</g>
<g>
</g>
<g>
</g>
<g>
</g>
<g>
</g>
<g>
</g>
<g>
</g>
<g>
</g>
<g>
</g>
<g>
</g>
</svg>
