<svg id="Capa_1" enable-background="new 0 0 512.01 512.01" height="512" viewBox="0 0 512.01 512.01" width="512" xmlns="http://www.w3.org/2000/svg"><g><path fill="#3265f6" d="m226.993 270h180c8.284 0 15-6.716 15-15v-60c0-8.284-6.716-15-15-15h-45v-75c0-8.284-6.716-15-15-15h-60c-8.284 0-15 6.716-15 15v45h-45c-8.284 0-15 6.716-15 15v90c0 8.284 6.716 15 15 15zm135-60h30v30h-30zm-60-90h30v120h-30zm-60 60h30v60h-30z"/><path fill="#3265f6" d="m76.81 498.818 137.879-137.879c29.76 18.414 64.81 29.061 102.304 29.061 107.523 0 195-87.477 195-195s-87.477-195-195-195-195 87.477-195 195c0 37.494 10.647 72.544 29.062 102.303l-137.879 137.879c-17.545 17.544-17.545 46.091 0 63.635 17.589 17.589 46.043 17.592 63.634.001zm240.183-468.818c90.981 0 165 74.019 165 165s-74.019 165-165 165-165-74.019-165-165 74.019-165 165-165zm-282.604 426.396 134.59-134.59c6.519 7.598 13.611 14.69 21.209 21.209l-134.59 134.59c-5.865 5.865-15.343 5.866-21.209 0-5.847-5.848-5.847-15.362 0-21.209z"/></g></svg>