<svg width="576" height="512" xmlns="http://www.w3.org/2000/svg" class="svg-inline--fa fa-folder-open fa-w-18">

 <g>
  <title>background</title>
  <rect fill="none" id="canvas_background" height="402" width="582" y="-1" x="-1"/>
 </g>
 <g>
  <title>Layer 1</title>
  <path stroke="null" id="svg_1" d="m515.78813,66.801457l-258.647201,0l-10.445549,-19.427104c-9.625533,-20.812682 -31.028963,-34.215353 -54.64057,-34.215353l-134.216508,0c-33.048236,0.001381 -59.838301,25.860442 -59.838301,57.763275l0,148.552488l0,125.235267l0,102.755194c0,28.168818 23.653109,50.999775 52.833099,50.999775l471.958801,0c29.17856,0 52.833099,-22.830957 52.833099,-50.999775l0,-102.755194l0,-125.235267l0,-94.911412c0,-31.90007 -26.790065,-57.761893 -59.83687,-57.761893zm-323.907914,4.379145c0.459381,0.987725 0.948815,1.961636 1.465439,2.921733l10.445549,19.428486c10.338217,19.224033 30.908751,31.289477 53.348293,31.289477l258.378156,0.002763l0,43.650547l-457.411738,0l0,-97.294386l133.774301,0l0,0.001381z" fill="#3265f6"/>
 </g>
</svg>