<svg width="142" viewBox="0 0 142 136" xmlns:xlink="http://www.w3.org/1999/xlink" xmlns="http://www.w3.org/2000/svg" height="136">
    <defs/>
    <g transform="translate(-486,-265.67)">
        <path fill="#3265f6" transform="translate(487,266.67)" stroke="#00b4f0" d="M108,134.1C125.7,134.1,140,119.8,140,102.1L140,32C140,14.3,125.7,0,108,0L32,0C14.3,0,0,14.3,0,32L0,102.1C0,119.8,14.3,134.1,32,134.1L108,134.1z" id="shape1"/>
        <path fill="#ffffff" transform="translate(523.27,283.58)" stroke="#ffffff" d="M45.3,21L31.8,88.3C31.1,92.1,30.7,94.5,30.7,95.7C30.7,96.8,30.9,98,31.5,99.3C27.4,101.3,23.7,102.3,20.4,102.3C18.3,102.3,17.3,101.5,17.3,99.8C17.3,99,17.7,96.5,18.5,92.4L32.7,21L24.4,21C15,21,6.8,21.8,0,23.6C1.3,18.3,3.1,15,5.3,13.7C7.5,12.4,12.4,11.8,19.9,11.8L60.3,11.8C71.2,11.8,78.4,7.8,81.9,0C83.3,2.3,84,4.2,84,5.7C84,10.8,80.8,15,74.4,18.1C70.5,20,63.2,21,52.5,21L45.3,21z" id="shape2"/>
    </g>
</svg>
