<svg width="512" height="512" xmlns="http://www.w3.org/2000/svg">

 <g>
  <title>background</title>
  <rect fill="none" id="canvas_background" height="402" width="582" y="-1" x="-1"/>
 </g>
 <g>
  <title>Layer 1</title>
  <g stroke="null" id="svg_1">
   <path fill='#3265f6' stroke="null" id="svg_2" d="m491.423871,514.000009c12.21258,0 22.147188,-9.915295 22.147188,-22.106266l0,-469.787477c0,-12.188838 -9.934608,-22.106266 -22.147188,-22.106266l-470.702545,0c-12.214717,0 -22.149325,9.917428 -22.149325,22.106266l0,469.787477c0,12.188838 9.934608,22.106266 22.149325,22.106266l470.702545,0zm-343.042083,-393.692015c0,-17.667951 14.351652,-31.991702 32.054016,-31.991702l151.273588,0c17.702365,0 32.054016,14.323751 32.054016,31.991702s-14.351652,31.991702 -32.054016,31.991702l-43.888359,0l0,241.394452c0,17.667951 -14.351652,31.991702 -32.054016,31.991702s-32.054016,-14.323751 -32.054016,-31.991702l0,-241.394452l-43.277196,0c-17.702365,0 -32.054016,-14.323751 -32.054016,-31.991702z"/>
  </g>
 </g>
</svg>